<?xml version="1.0" encoding="utf-8" ?>
<svg baseProfile="full" height="300px" version="1.1" width="600px" xmlns="http://www.w3.org/2000/svg" xmlns:ev="http://www.w3.org/2001/xml-events" xmlns:xlink="http://www.w3.org/1999/xlink"><defs /><rect height="40" style="fill:white; stroke:black; stroke-width:1;" width="80" x="50" y="50" /><rect height="40" style="fill:#f0f0f0; stroke:black; stroke-width:1;" width="80" x="130" y="50" /><text style="font-size:12px; font-weight:bold;" text-anchor="middle" x="170.0" y="75.0">Pattern 1</text><rect height="40" style="fill:#f0f0f0; stroke:black; stroke-width:1;" width="80" x="210" y="50" /><text style="font-size:12px; font-weight:bold;" text-anchor="middle" x="250.0" y="75.0">Pattern 2</text><rect height="40" style="fill:#f0f0f0; stroke:black; stroke-width:1;" width="80" x="290" y="50" /><text style="font-size:12px; font-weight:bold;" text-anchor="middle" x="330.0" y="75.0">Pattern 3</text><rect height="40" style="fill:#f0f0f0; stroke:black; stroke-width:1;" width="80" x="370" y="50" /><text style="font-size:12px; font-weight:bold;" text-anchor="middle" x="410.0" y="75.0">Pattern 4</text><rect height="40" style="fill:#f0f0f0; stroke:black; stroke-width:1;" width="80" x="450" y="50" /><text style="font-size:12px; font-weight:bold;" text-anchor="middle" x="490.0" y="75.0">Pattern 5</text><rect height="40" style="fill:#f0f0f0; stroke:black; stroke-width:1;" width="80" x="50" y="90" /><text style="font-size:12px; font-weight:bold;" text-anchor="middle" x="90.0" y="115.0">1</text><rect height="40" style="fill:white; stroke:black; stroke-width:1;" width="80" x="130" y="90" /><text style="font-size:11px;" text-anchor="middle" x="170.0" y="115.0">0.612</text><rect height="40" style="fill:white; stroke:black; stroke-width:1;" width="80" x="210" y="90" /><text style="font-size:11px;" text-anchor="middle" x="250.0" y="115.0">0.12</text><rect height="40" style="fill:white; stroke:black; stroke-width:1;" width="80" x="290" y="90" /><text style="font-size:11px;" text-anchor="middle" x="330.0" y="115.0">0.32</text><rect height="40" style="fill:white; stroke:black; stroke-width:1;" width="80" x="370" y="90" /><text style="font-size:11px;" text-anchor="middle" x="410.0" y="115.0">0.279</text><rect height="40" style="fill:white; stroke:black; stroke-width:1;" width="80" x="450" y="90" /><text style="font-size:11px;" text-anchor="middle" x="490.0" y="115.0">0.689</text><rect height="40" style="fill:#f0f0f0; stroke:black; stroke-width:1;" width="80" x="50" y="130" /><text style="font-size:12px; font-weight:bold;" text-anchor="middle" x="90.0" y="155.0">2</text><rect height="40" style="fill:white; stroke:black; stroke-width:1;" width="80" x="130" y="130" /><text style="font-size:11px;" text-anchor="middle" x="170.0" y="155.0">0.641</text><rect height="40" style="fill:white; stroke:black; stroke-width:1;" width="80" x="210" y="130" /><text style="font-size:11px;" text-anchor="middle" x="250.0" y="155.0">0.814</text><rect height="40" style="fill:white; stroke:black; stroke-width:1;" width="80" x="290" y="130" /><text style="font-size:11px;" text-anchor="middle" x="330.0" y="155.0">0.17</text><rect height="40" style="fill:white; stroke:black; stroke-width:1;" width="80" x="370" y="130" /><text style="font-size:11px;" text-anchor="middle" x="410.0" y="155.0">0.438</text><rect height="40" style="fill:white; stroke:black; stroke-width:1;" width="80" x="450" y="130" /><text style="font-size:11px;" text-anchor="middle" x="490.0" y="155.0">0.124</text><rect height="40" style="fill:#f0f0f0; stroke:black; stroke-width:1;" width="80" x="50" y="170" /><text style="font-size:12px; font-weight:bold;" text-anchor="middle" x="90.0" y="195.0">3</text><rect height="40" style="fill:white; stroke:black; stroke-width:1;" width="80" x="130" y="170" /><text style="font-size:11px;" text-anchor="middle" x="170.0" y="195.0">0.275</text><rect height="40" style="fill:white; stroke:black; stroke-width:1;" width="80" x="210" y="170" /><text style="font-size:11px;" text-anchor="middle" x="250.0" y="195.0">0.504</text><rect height="40" style="fill:white; stroke:black; stroke-width:1;" width="80" x="290" y="170" /><text style="font-size:11px;" text-anchor="middle" x="330.0" y="195.0">0.121</text><rect height="40" style="fill:white; stroke:black; stroke-width:1;" width="80" x="370" y="170" /><text style="font-size:11px;" text-anchor="middle" x="410.0" y="195.0">0.259</text><rect height="40" style="fill:white; stroke:black; stroke-width:1;" width="80" x="450" y="170" /><text style="font-size:11px;" text-anchor="middle" x="490.0" y="195.0">0.62</text><rect height="40" style="fill:#f0f0f0; stroke:black; stroke-width:1;" width="80" x="50" y="210" /><text style="font-size:12px; font-weight:bold;" text-anchor="middle" x="90.0" y="235.0">4</text><rect height="40" style="fill:white; stroke:black; stroke-width:1;" width="80" x="130" y="210" /><text style="font-size:11px;" text-anchor="middle" x="170.0" y="235.0">0.536</text><rect height="40" style="fill:white; stroke:black; stroke-width:1;" width="80" x="210" y="210" /><text style="font-size:11px;" text-anchor="middle" x="250.0" y="235.0">0.276</text><rect height="40" style="fill:white; stroke:black; stroke-width:1;" width="80" x="290" y="210" /><text style="font-size:11px;" text-anchor="middle" x="330.0" y="235.0">0.571</text><rect height="40" style="fill:white; stroke:black; stroke-width:1;" width="80" x="370" y="210" /><text style="font-size:11px;" text-anchor="middle" x="410.0" y="235.0">0.748</text><rect height="40" style="fill:white; stroke:black; stroke-width:1;" width="80" x="450" y="210" /><text style="font-size:11px;" text-anchor="middle" x="490.0" y="235.0">0.105</text></svg>