<?xml version="1.0" encoding="UTF-8" standalone="no"?>
<svg width="550" height="440" xmlns="http://www.w3.org/2000/svg">
<rect x="185.0" y="20" width="130" height="55" fill="#f9f1f9" stroke="#000000" stroke-width="2"/>
<text x="250" y="43" text-anchor="middle" font-size="13" font-weight="bold" fill="#000000">Pattern 1</text>
<text x="250" y="62" text-anchor="middle" font-size="11" fill="#000000">RMSE ≤ 0.52?</text>
<line x1="220" y1="75" x2="130" y2="140" stroke="#000000" stroke-width="2"/>
<text x="175" y="120" text-anchor="middle" font-size="11" font-weight="bold" fill="#4CAF50">Yes</text>
<rect x="65.0" y="140" width="130" height="55" fill="#FFE5E5" stroke="#000000" stroke-width="2" rx="5" ry="5"/>
<text x="130" y="168" text-anchor="middle" font-size="13" font-weight="bold" fill="#000000">Class 0</text>
<text x="130" y="185" text-anchor="middle" font-size="10" fill="#000000">n = 82</text>
<line x1="280" y1="75" x2="370" y2="140" stroke="#000000" stroke-width="2"/>
<text x="325" y="120" text-anchor="middle" font-size="11" font-weight="bold" fill="#f44336">No</text>
<rect x="305.0" y="140" width="130" height="55" fill="#f9f1f9" stroke="#000000" stroke-width="2"/>
<text x="370" y="163" text-anchor="middle" font-size="13" font-weight="bold" fill="#000000">Pattern 2</text>
<text x="370" y="182" text-anchor="middle" font-size="11" fill="#000000">RMSE ≤ 0.38?</text>
<line x1="340" y1="195" x2="300" y2="260" stroke="#000000" stroke-width="2"/>
<text x="325" y="240" text-anchor="middle" font-size="11" font-weight="bold" fill="#4CAF50">Yes</text>
<rect x="235.0" y="260" width="130" height="55" fill="#E5FFE5" stroke="#000000" stroke-width="2" rx="5" ry="5"/>
<text x="300" y="288" text-anchor="middle" font-size="13" font-weight="bold" fill="#000000">Class 1</text>
<text x="300" y="305" text-anchor="middle" font-size="10" fill="#000000">n = 54</text>
<line x1="400" y1="195" x2="440" y2="260" stroke="#000000" stroke-width="2"/>
<text x="415" y="240" text-anchor="middle" font-size="11" font-weight="bold" fill="#f44336">No</text>
<rect x="375.0" y="260" width="130" height="55" fill="#FFE5E5" stroke="#000000" stroke-width="2" rx="5" ry="5"/>
<text x="440" y="288" text-anchor="middle" font-size="13" font-weight="bold" fill="#000000">Class 0</text>
<text x="440" y="305" text-anchor="middle" font-size="10" fill="#000000">n = 34</text>
</svg>