<?xml version="1.0" encoding="UTF-8" standalone="no"?>
<svg width="1200" height="650" xmlns="http://www.w3.org/2000/svg">
<rect x="540.0" y="20" width="120" height="50" fill="#f9f1f9" stroke="#000000" stroke-width="2"/>
<text x="600" y="42" text-anchor="middle" font-size="12" font-weight="bold" fill="#000000">Pattern 1</text>
<text x="600" y="58" text-anchor="middle" font-size="10" fill="#000000">RMSE ≤ 0.65?</text>
<line x1="575" y1="70" x2="350" y2="150" stroke="#000000" stroke-width="2"/>
<text x="450" y="125" text-anchor="middle" font-size="11" font-weight="bold" fill="#4CAF50">Yes</text>
<rect x="290.0" y="150" width="120" height="50" fill="#f9f1f9" stroke="#000000" stroke-width="2"/>
<text x="350" y="172" text-anchor="middle" font-size="12" font-weight="bold" fill="#000000">Pattern 2</text>
<text x="350" y="188" text-anchor="middle" font-size="10" fill="#000000">RMSE ≤ 0.42?</text>
<line x1="625" y1="70" x2="850" y2="150" stroke="#000000" stroke-width="2"/>
<text x="750" y="125" text-anchor="middle" font-size="11" font-weight="bold" fill="#f44336">No</text>
<rect x="790.0" y="150" width="120" height="50" fill="#f9f1f9" stroke="#000000" stroke-width="2"/>
<text x="850" y="172" text-anchor="middle" font-size="12" font-weight="bold" fill="#000000">Pattern 3</text>
<text x="850" y="188" text-anchor="middle" font-size="10" fill="#000000">RMSE ≤ 0.78?</text>
<line x1="315" y1="200" x2="200" y2="280" stroke="#000000" stroke-width="2"/>
<text x="260" y="255" text-anchor="middle" font-size="11" font-weight="bold" fill="#4CAF50">Yes</text>
<rect x="140.0" y="280" width="120" height="50" fill="#f9f1f9" stroke="#000000" stroke-width="2"/>
<text x="200" y="302" text-anchor="middle" font-size="12" font-weight="bold" fill="#000000">Pattern 4</text>
<text x="200" y="318" text-anchor="middle" font-size="10" fill="#000000">RMSE ≤ 0.31?</text>
<line x1="385" y1="200" x2="500" y2="280" stroke="#000000" stroke-width="2"/>
<text x="440" y="255" text-anchor="middle" font-size="11" font-weight="bold" fill="#f44336">No</text>
<rect x="440.0" y="280" width="120" height="50" fill="#f9f1f9" stroke="#000000" stroke-width="2"/>
<text x="500" y="302" text-anchor="middle" font-size="12" font-weight="bold" fill="#000000">Pattern 5</text>
<text x="500" y="318" text-anchor="middle" font-size="10" fill="#000000">RMSE ≤ 0.55?</text>
<line x1="815" y1="200" x2="700" y2="280" stroke="#000000" stroke-width="2"/>
<text x="760" y="255" text-anchor="middle" font-size="11" font-weight="bold" fill="#4CAF50">Yes</text>
<rect x="640.0" y="280" width="120" height="50" fill="#f9f1f9" stroke="#000000" stroke-width="2"/>
<text x="700" y="302" text-anchor="middle" font-size="12" font-weight="bold" fill="#000000">Pattern 6</text>
<text x="700" y="318" text-anchor="middle" font-size="10" fill="#000000">RMSE ≤ 0.48?</text>
<line x1="885" y1="200" x2="1000" y2="280" stroke="#000000" stroke-width="2"/>
<text x="940" y="255" text-anchor="middle" font-size="11" font-weight="bold" fill="#f44336">No</text>
<rect x="940.0" y="280" width="120" height="50" fill="#FFE5E5" stroke="#000000" stroke-width="2" rx="5" ry="5"/>
<text x="1000" y="305" text-anchor="middle" font-size="12" font-weight="bold" fill="#000000">Class 0</text>
<text x="1000" y="320" text-anchor="middle" font-size="10" fill="#000000">n = 28</text>
<line x1="170" y1="330" x2="100" y2="410" stroke="#000000" stroke-width="2"/>
<text x="135" y="385" text-anchor="middle" font-size="11" font-weight="bold" fill="#4CAF50">Yes</text>
<rect x="40.0" y="410" width="120" height="50" fill="#FFE5E5" stroke="#000000" stroke-width="2" rx="5" ry="5"/>
<text x="100" y="435" text-anchor="middle" font-size="12" font-weight="bold" fill="#000000">Class 0</text>
<text x="100" y="450" text-anchor="middle" font-size="10" fill="#000000">n = 35</text>
<line x1="230" y1="330" x2="300" y2="410" stroke="#000000" stroke-width="2"/>
<text x="265" y="385" text-anchor="middle" font-size="11" font-weight="bold" fill="#f44336">No</text>
<rect x="240.0" y="410" width="120" height="50" fill="#E5FFE5" stroke="#000000" stroke-width="2" rx="5" ry="5"/>
<text x="300" y="435" text-anchor="middle" font-size="12" font-weight="bold" fill="#000000">Class 1</text>
<text x="300" y="450" text-anchor="middle" font-size="10" fill="#000000">n = 32</text>
<line x1="470" y1="330" x2="420" y2="410" stroke="#000000" stroke-width="2"/>
<text x="450" y="385" text-anchor="middle" font-size="11" font-weight="bold" fill="#4CAF50">Yes</text>
<rect x="360.0" y="410" width="120" height="50" fill="#E5FFE5" stroke="#000000" stroke-width="2" rx="5" ry="5"/>
<text x="420" y="435" text-anchor="middle" font-size="12" font-weight="bold" fill="#000000">Class 1</text>
<text x="420" y="450" text-anchor="middle" font-size="10" fill="#000000">n = 41</text>
<line x1="530" y1="330" x2="580" y2="410" stroke="#000000" stroke-width="2"/>
<text x="550" y="385" text-anchor="middle" font-size="11" font-weight="bold" fill="#f44336">No</text>
<rect x="520.0" y="410" width="120" height="50" fill="#FFE5E5" stroke="#000000" stroke-width="2" rx="5" ry="5"/>
<text x="580" y="435" text-anchor="middle" font-size="12" font-weight="bold" fill="#000000">Class 0</text>
<text x="580" y="450" text-anchor="middle" font-size="10" fill="#000000">n = 38</text>
<line x1="670" y1="330" x2="700" y2="410" stroke="#000000" stroke-width="2"/>
<text x="735" y="385" text-anchor="middle" font-size="11" font-weight="bold" fill="#4CAF50">Yes</text>
<rect x="640.0" y="410" width="120" height="50" fill="#E5FFE5" stroke="#000000" stroke-width="2" rx="5" ry="5"/>
<text x="700" y="435" text-anchor="middle" font-size="12" font-weight="bold" fill="#000000">Class 1</text>
<text x="700" y="450" text-anchor="middle" font-size="10" fill="#000000">n = 45</text>
<line x1="730" y1="330" x2="900" y2="410" stroke="#000000" stroke-width="2"/>
<text x="865" y="385" text-anchor="middle" font-size="11" font-weight="bold" fill="#f44336">No</text>
<rect x="840.0" y="410" width="120" height="50" fill="#FFE5E5" stroke="#000000" stroke-width="2" rx="5" ry="5"/>
<text x="900" y="435" text-anchor="middle" font-size="12" font-weight="bold" fill="#000000">Class 0</text>
<text x="900" y="450" text-anchor="middle" font-size="10" fill="#000000">n = 51</text>
</svg>