<?xml version="1.0" encoding="utf-8" ?>
<svg baseProfile="full" height="250px" version="1.1" width="350px" xmlns="http://www.w3.org/2000/svg" xmlns:ev="http://www.w3.org/2001/xml-events" xmlns:xlink="http://www.w3.org/1999/xlink"><defs /><rect height="40" style="fill:white; stroke:black; stroke-width:1;" width="80" x="30" y="30" /><rect height="40" style="fill:#e3f2fd; stroke:black; stroke-width:1;" width="80" x="110" y="30" /><text style="font-size:12px; font-weight:bold;" text-anchor="middle" x="150.0" y="55.0">Pattern 1</text><rect height="40" style="fill:#c8e6c9; stroke:black; stroke-width:1;" width="80" x="190" y="30" /><text style="font-size:12px; font-weight:bold; fill:#2e7d32;" text-anchor="middle" x="230.0" y="55.0">Pattern 2</text><rect height="40" style="fill:#f5f5f5; stroke:black; stroke-width:1;" width="80" x="30" y="70" /><text style="font-size:11px;" text-anchor="middle" x="70.0" y="95.0">Sample 1</text><rect height="40" style="fill:white; stroke:black; stroke-width:1;" width="80" x="110" y="70" /><text style="font-size:11px;" text-anchor="middle" x="150.0" y="95.0">0.61</text><rect height="40" style="fill:#f1f8e9; stroke:black; stroke-width:1;" width="80" x="190" y="70" /><text style="font-size:11px; fill:#2e7d32;" text-anchor="middle" x="230.0" y="95.0">0.12</text><rect height="40" style="fill:#f5f5f5; stroke:black; stroke-width:1;" width="80" x="30" y="110" /><text style="font-size:11px;" text-anchor="middle" x="70.0" y="135.0">Sample 2</text><rect height="40" style="fill:white; stroke:black; stroke-width:1;" width="80" x="110" y="110" /><text style="font-size:11px;" text-anchor="middle" x="150.0" y="135.0">0.81</text><rect height="40" style="fill:#f1f8e9; stroke:black; stroke-width:1;" width="80" x="190" y="110" /><text style="font-size:11px; fill:#2e7d32;" text-anchor="middle" x="230.0" y="135.0">0.17</text><rect height="40" style="fill:#f5f5f5; stroke:black; stroke-width:1;" width="80" x="30" y="150" /><text style="font-size:11px;" text-anchor="middle" x="70.0" y="175.0">Sample 3</text><rect height="40" style="fill:white; stroke:black; stroke-width:1;" width="80" x="110" y="150" /><text style="font-size:11px;" text-anchor="middle" x="150.0" y="175.0">0.12</text><rect height="40" style="fill:#f1f8e9; stroke:black; stroke-width:1;" width="80" x="190" y="150" /><text style="font-size:11px; fill:#2e7d32;" text-anchor="middle" x="230.0" y="175.0">0.26</text><rect height="40" style="fill:#f5f5f5; stroke:black; stroke-width:1;" width="80" x="30" y="190" /><text style="font-size:11px;" text-anchor="middle" x="70.0" y="215.0">Sample 4</text><rect height="40" style="fill:white; stroke:black; stroke-width:1;" width="80" x="110" y="190" /><text style="font-size:11px;" text-anchor="middle" x="150.0" y="215.0">0.75</text><rect height="40" style="fill:#f1f8e9; stroke:black; stroke-width:1;" width="80" x="190" y="190" /><text style="font-size:11px; fill:#2e7d32;" text-anchor="middle" x="230.0" y="215.0">0.11</text></svg>