<?xml version="1.0" encoding="utf-8" standalone="no"?>
<!DOCTYPE svg PUBLIC "-//W3C//DTD SVG 1.1//EN"
  "http://www.w3.org/Graphics/SVG/1.1/DTD/svg11.dtd">
<svg xmlns:xlink="http://www.w3.org/1999/xlink" width="849.6pt" height="273.6pt" viewBox="0 0 849.6 273.6" xmlns="http://www.w3.org/2000/svg" version="1.1">
 <metadata>
  <rdf:RDF xmlns:dc="http://purl.org/dc/elements/1.1/" xmlns:cc="http://creativecommons.org/ns#" xmlns:rdf="http://www.w3.org/1999/02/22-rdf-syntax-ns#">
   <cc:Work>
    <dc:type rdf:resource="http://purl.org/dc/dcmitype/StillImage"/>
    <dc:date>2025-10-27T11:37:11.419257</dc:date>
    <dc:format>image/svg+xml</dc:format>
    <dc:creator>
     <cc:Agent>
      <dc:title>Matplotlib v3.10.6, https://matplotlib.org/</dc:title>
     </cc:Agent>
    </dc:creator>
   </cc:Work>
  </rdf:RDF>
 </metadata>
 <defs>
  <style type="text/css">*{stroke-linejoin: round; stroke-linecap: butt}</style>
 </defs>
 <g id="figure_1">
  <g id="patch_1">
   <path d="M 0 273.6 
L 849.6 273.6 
L 849.6 0 
L 0 0 
L 0 273.6 
z
" style="fill: none"/>
  </g>
  <g id="axes_1">
   <g id="line2d_1">
    <path d="M 41.890909 15.709091 
L 49.626446 81.349502 
L 57.361983 114.721197 
L 65.097521 154.394018 
L 72.833058 200.577899 
L 80.568595 229.171895 
L 88.304132 245.158621 
L 96.039669 255.015901 
L 103.775207 256.979974 
L 111.510744 257.248624 
L 119.246281 257.533586 
L 126.981818 257.575788 
L 134.717355 257.754239 
L 142.452893 257.560259 
L 150.18843 257.372024 
L 157.923967 257.375713 
L 165.659504 256.548309 
L 173.395041 256.690093 
L 181.130579 254.817473 
L 188.866116 254.508412 
L 196.601653 253.684942 
L 204.33719 256.095624 
L 212.072727 256.91019 
L 219.808264 256.650865 
L 227.543802 257.540712 
L 235.279339 257.86662 
L 243.014876 257.402047 
L 250.750413 257.420577 
L 258.48595 257.635846 
L 266.221488 257.584429 
L 273.957025 257.621213 
L 281.692562 257.583397 
L 289.428099 256.619827 
L 297.163636 256.89062 
L 304.899174 257.234292 
L 312.634711 257.529101 
L 320.370248 257.679663 
L 328.105785 257.605244 
L 335.841322 257.890909 
L 343.57686 257.799634 
L 351.312397 257.695897 
L 359.047934 257.729785 
L 366.783471 257.680871 
L 374.519008 257.781281 
L 382.254545 257.872025 
L 389.990083 257.745002 
L 397.72562 257.847308 
L 405.461157 257.776561 
L 413.196694 257.858826 
L 420.932231 257.765336 
L 428.667769 257.830827 
L 436.403306 257.85397 
L 444.138843 257.792991 
L 451.87438 257.670554 
L 459.609917 257.815307 
L 467.345455 257.755716 
L 475.080992 257.852975 
L 482.816529 257.784484 
L 490.552066 257.538432 
L 498.287603 257.562422 
L 506.02314 257.327658 
L 513.758678 256.850286 
L 521.494215 256.615517 
L 529.229752 257.289516 
L 536.965289 256.963294 
L 544.700826 257.280256 
L 552.436364 257.667648 
L 560.171901 257.742645 
L 567.907438 257.633986 
L 575.642975 257.45495 
L 583.378512 257.561041 
L 591.11405 256.923091 
L 598.849587 256.825125 
L 606.585124 257.149489 
L 614.320661 257.112245 
L 622.056198 257.05994 
L 629.791736 257.584443 
L 637.527273 257.464597 
L 645.26281 257.543449 
L 652.998347 257.888754 
L 660.733884 257.691239 
L 668.469421 257.836156 
L 676.204959 257.754729 
L 683.940496 257.811077 
L 691.676033 257.878693 
L 699.41157 257.7381 
L 707.147107 257.742053 
L 714.882645 257.840958 
L 722.618182 257.807159 
L 730.353719 257.75979 
L 738.089256 257.532311 
L 745.824793 257.695237 
L 753.560331 257.693031 
L 761.295868 257.712483 
L 769.031405 257.714535 
L 776.766942 257.592559 
L 784.502479 257.756093 
L 792.238017 257.699316 
L 799.973554 257.636175 
L 807.709091 257.731039 
" clip-path="url(#p0364cc0bff)" style="fill: none; stroke: #000000; stroke-width: 2.5; stroke-linecap: square"/>
   </g>
  </g>
 </g>
 <defs>
  <clipPath id="p0364cc0bff">
   <rect x="3.6" y="3.6" width="842.4" height="266.4"/>
  </clipPath>
 </defs>
</svg>
