<?xml version="1.0" encoding="utf-8" standalone="no"?>
<!DOCTYPE svg PUBLIC "-//W3C//DTD SVG 1.1//EN"
  "http://www.w3.org/Graphics/SVG/1.1/DTD/svg11.dtd">
<svg xmlns:xlink="http://www.w3.org/1999/xlink" width="849.6pt" height="273.6pt" viewBox="0 0 849.6 273.6" xmlns="http://www.w3.org/2000/svg" version="1.1">
 <metadata>
  <rdf:RDF xmlns:dc="http://purl.org/dc/elements/1.1/" xmlns:cc="http://creativecommons.org/ns#" xmlns:rdf="http://www.w3.org/1999/02/22-rdf-syntax-ns#">
   <cc:Work>
    <dc:type rdf:resource="http://purl.org/dc/dcmitype/StillImage"/>
    <dc:date>2025-10-02T11:16:48.903663</dc:date>
    <dc:format>image/svg+xml</dc:format>
    <dc:creator>
     <cc:Agent>
      <dc:title>Matplotlib v3.10.6, https://matplotlib.org/</dc:title>
     </cc:Agent>
    </dc:creator>
   </cc:Work>
  </rdf:RDF>
 </metadata>
 <defs>
  <style type="text/css">*{stroke-linejoin: round; stroke-linecap: butt}</style>
 </defs>
 <g id="figure_1">
  <g id="patch_1">
   <path d="M 0 273.6 
L 849.6 273.6 
L 849.6 0 
L 0 0 
z
" style="fill: #ffffff"/>
  </g>
  <g id="axes_1">
   <g id="line2d_1">
    <path d="M 41.890909 257.890909 
L 53.435907 257.890909 
L 57.284239 254.591429 
L 61.132572 253.051672 
L 64.980905 257.890909 
L 72.67757 257.890909 
L 76.525902 255.911221 
L 80.374235 251.73188 
L 84.222567 255.691256 
L 88.0709 251.291949 
L 91.919233 250.412088 
L 95.767565 257.890909 
L 122.705893 257.890909 
L 126.554226 249.752192 
L 130.402558 246.232747 
L 134.250891 253.271637 
L 138.099223 257.890909 
L 145.795889 257.890909 
L 149.644221 249.752192 
L 153.492554 257.890909 
L 184.279214 257.890909 
L 188.127547 249.752192 
L 191.975879 257.890909 
L 199.672545 257.890909 
L 203.520877 255.691256 
L 207.36921 246.452712 
L 211.217542 247.112608 
L 215.065875 257.890909 
L 218.914207 257.011048 
L 222.76254 250.632054 
L 226.610873 254.811395 
L 230.459205 252.831707 
L 234.307538 257.890909 
L 238.15587 249.092296 
L 242.004203 250.412088 
L 245.852535 257.890909 
L 268.942531 257.890909 
L 272.790863 254.371464 
L 276.639196 236.994204 
L 280.487529 257.890909 
L 299.729191 257.890909 
L 303.577524 250.192123 
L 307.425857 257.450978 
L 311.274189 251.071984 
L 315.122522 256.571117 
L 318.970854 257.011048 
L 322.819187 250.632054 
L 326.667519 257.890909 
L 330.515852 257.890909 
L 334.364185 253.051672 
L 338.212517 254.151499 
L 342.06085 250.192123 
L 345.909182 242.053406 
L 349.757515 257.450978 
L 353.605847 257.890909 
L 372.84751 257.890909 
L 376.695843 255.471291 
L 380.544175 252.171811 
L 384.392508 257.890909 
L 388.240841 252.171811 
L 392.089173 231.05514 
L 395.937506 213.017984 
L 399.785838 214.997672 
L 403.634171 218.297151 
L 407.482503 236.334308 
L 411.330836 232.374932 
L 415.179169 186.182215 
L 419.027501 206.419024 
L 422.875834 174.524053 
L 426.724166 137.789844 
L 430.572499 187.502006 
L 434.420831 136.909983 
L 438.269164 99.515878 
L 442.117497 157.806688 
L 445.965829 145.0487 
L 449.814162 138.229775 
L 453.662494 159.346445 
L 457.510827 93.136884 
L 461.359159 98.855982 
L 465.207492 15.709091 
L 469.055825 81.918652 
L 472.904157 60.142086 
L 476.75249 40.785137 
L 480.600822 73.779936 
L 484.449155 121.07248 
L 488.297487 74.879762 
L 492.14582 134.710329 
L 495.994153 163.085856 
L 499.842485 120.632549 
L 503.690818 139.549567 
L 507.53915 105.894872 
L 511.387483 81.478722 
L 515.235815 140.869358 
L 519.084148 192.561209 
L 522.932481 205.319197 
L 526.780813 233.034828 
L 530.629146 249.312262 
L 534.477478 232.154967 
L 538.325811 235.454446 
L 542.174143 249.752192 
L 546.022476 255.03136 
L 549.870809 252.611741 
L 553.719141 249.752192 
L 557.567474 257.890909 
L 561.415806 257.890909 
L 565.264139 249.752192 
L 569.112471 257.890909 
L 580.657469 257.890909 
L 584.505802 252.611741 
L 588.354134 255.03136 
L 592.202467 257.890909 
L 622.989127 257.890909 
L 626.83746 250.192123 
L 630.685793 249.312262 
L 634.534125 247.99247 
L 638.382458 251.511915 
L 642.23079 257.890909 
L 699.955779 257.890909 
L 703.804111 246.232747 
L 707.652444 253.271637 
L 711.500777 257.890909 
L 715.349109 242.273371 
L 719.197442 257.231013 
L 723.045774 257.890909 
L 726.894107 249.752192 
L 730.742439 257.890909 
L 734.590772 249.312262 
L 738.439105 250.192123 
L 742.287437 257.890909 
L 746.13577 253.051672 
L 749.984102 254.591429 
L 753.832435 249.752192 
L 757.680767 257.890909 
L 765.377433 257.890909 
L 769.225765 249.752192 
L 773.074098 234.79455 
L 776.92243 256.571117 
L 780.770763 257.890909 
L 796.164093 257.890909 
L 800.012426 252.171811 
L 803.860758 252.171811 
L 807.709091 253.051672 
L 807.709091 253.051672 
" clip-path="url(#p41fa31205f)" style="fill: none; stroke: #000000; stroke-width: 3; stroke-linecap: square"/>
   </g>
  </g>
 </g>
 <defs>
  <clipPath id="p41fa31205f">
   <rect x="3.6" y="3.6" width="842.4" height="266.4"/>
  </clipPath>
 </defs>
</svg>
