<?xml version="1.0" encoding="utf-8" standalone="no"?>
<!DOCTYPE svg PUBLIC "-//W3C//DTD SVG 1.1//EN"
  "http://www.w3.org/Graphics/SVG/1.1/DTD/svg11.dtd">
<svg xmlns:xlink="http://www.w3.org/1999/xlink" width="849.6pt" height="273.6pt" viewBox="0 0 849.6 273.6" xmlns="http://www.w3.org/2000/svg" version="1.1">
 <metadata>
  <rdf:RDF xmlns:dc="http://purl.org/dc/elements/1.1/" xmlns:cc="http://creativecommons.org/ns#" xmlns:rdf="http://www.w3.org/1999/02/22-rdf-syntax-ns#">
   <cc:Work>
    <dc:type rdf:resource="http://purl.org/dc/dcmitype/StillImage"/>
    <dc:date>2025-10-02T14:45:02.302475</dc:date>
    <dc:format>image/svg+xml</dc:format>
    <dc:creator>
     <cc:Agent>
      <dc:title>Matplotlib v3.10.6, https://matplotlib.org/</dc:title>
     </cc:Agent>
    </dc:creator>
   </cc:Work>
  </rdf:RDF>
 </metadata>
 <defs>
  <style type="text/css">*{stroke-linejoin: round; stroke-linecap: butt}</style>
 </defs>
 <g id="figure_1">
  <g id="patch_1">
   <path d="M 0 273.6 
L 849.6 273.6 
L 849.6 0 
L 0 0 
L 0 273.6 
z
" style="fill: none"/>
  </g>
  <g id="axes_1">
   <g id="line2d_1">
    <path d="M 41.890909 257.890909 
L 54.870878 252.834349 
L 67.850847 247.660796 
L 80.830817 242.371675 
L 93.810786 236.968968 
L 106.790755 231.455208 
L 119.770724 225.833486 
L 132.750693 220.107443 
L 145.730663 214.281278 
L 158.710632 208.359741 
L 171.690601 202.348139 
L 184.67057 196.25233 
L 197.650539 190.078729 
L 210.630508 183.834303 
L 223.610478 177.526576 
L 236.590447 171.163624 
L 249.570416 164.754077 
L 262.550385 158.307119 
L 275.530354 151.832491 
L 288.510324 145.340486 
L 301.490293 138.841949 
L 314.470262 132.348284 
L 327.450231 125.871446 
L 340.4302 119.423945 
L 353.410169 113.018844 
L 366.390139 106.669762 
L 379.370108 100.390872 
L 392.350077 94.1969 
L 405.330046 88.103127 
L 418.310015 82.125388 
L 431.289985 76.280071 
L 444.269954 70.584121 
L 457.249923 65.055035 
L 470.229892 59.710865 
L 483.209861 54.570215 
L 496.189831 49.652247 
L 509.1698 44.976675 
L 522.149769 40.563767 
L 535.129738 36.434345 
L 548.109707 32.609786 
L 561.089676 29.112022 
L 574.069646 25.963537 
L 587.049615 23.187371 
L 600.029584 20.807117 
L 613.009553 18.846922 
L 625.989522 17.331489 
L 638.969492 16.286074 
L 651.949461 15.736486 
L 664.92943 15.709091 
L 677.909399 16.230806 
L 690.889368 17.329105 
L 703.869337 19.032013 
L 716.849307 21.368114 
L 729.829276 24.36654 
L 742.809245 28.056983 
L 755.789214 32.469685 
L 768.769183 37.635445 
L 781.749153 43.585614 
L 794.729122 50.352099 
L 807.709091 57.96736 
" clip-path="url(#pc05e7fdda9)" style="fill: none; stroke: #ff0000; stroke-width: 3; stroke-linecap: square"/>
   </g>
  </g>
 </g>
 <defs>
  <clipPath id="pc05e7fdda9">
   <rect x="3.6" y="3.6" width="842.4" height="266.4"/>
  </clipPath>
 </defs>
</svg>
