<?xml version="1.0" encoding="utf-8" standalone="no"?>
<!DOCTYPE svg PUBLIC "-//W3C//DTD SVG 1.1//EN"
  "http://www.w3.org/Graphics/SVG/1.1/DTD/svg11.dtd">
<svg xmlns:xlink="http://www.w3.org/1999/xlink" width="849.6pt" height="273.6pt" viewBox="0 0 849.6 273.6" xmlns="http://www.w3.org/2000/svg" version="1.1">
 <metadata>
  <rdf:RDF xmlns:dc="http://purl.org/dc/elements/1.1/" xmlns:cc="http://creativecommons.org/ns#" xmlns:rdf="http://www.w3.org/1999/02/22-rdf-syntax-ns#">
   <cc:Work>
    <dc:type rdf:resource="http://purl.org/dc/dcmitype/StillImage"/>
    <dc:date>2025-10-27T14:59:07.338816</dc:date>
    <dc:format>image/svg+xml</dc:format>
    <dc:creator>
     <cc:Agent>
      <dc:title>Matplotlib v3.10.6, https://matplotlib.org/</dc:title>
     </cc:Agent>
    </dc:creator>
   </cc:Work>
  </rdf:RDF>
 </metadata>
 <defs>
  <style type="text/css">*{stroke-linejoin: round; stroke-linecap: butt}</style>
 </defs>
 <g id="figure_1">
  <g id="patch_1">
   <path d="M 0 273.6 
L 849.6 273.6 
L 849.6 0 
L 0 0 
L 0 273.6 
z
" style="fill: none"/>
  </g>
  <g id="axes_1">
   <g id="line2d_1">
    <path d="M 41.890909 257.890909 
L 54.870878 253.938646 
L 67.850847 249.861018 
L 80.830817 245.660439 
L 93.810786 241.339607 
L 106.790755 236.90151 
L 119.770724 232.349422 
L 132.750693 227.686905 
L 145.730663 222.917809 
L 158.710632 218.046271 
L 171.690601 213.076717 
L 184.67057 208.013858 
L 197.650539 202.862695 
L 210.630508 197.628517 
L 223.610478 192.316897 
L 236.590447 186.933699 
L 249.570416 181.485073 
L 262.550385 175.977458 
L 275.530354 170.417579 
L 288.510324 164.812449 
L 301.490293 159.16937 
L 314.470262 153.495929 
L 327.450231 147.800003 
L 340.4302 142.089755 
L 353.410169 136.373636 
L 366.390139 130.660386 
L 379.370108 124.95903 
L 392.350077 119.278883 
L 405.330046 113.629546 
L 418.310015 108.020908 
L 431.289985 102.463146 
L 444.269954 96.966724 
L 457.249923 91.542395 
L 470.229892 86.201197 
L 483.209861 80.954458 
L 496.189831 75.813792 
L 509.1698 70.791102 
L 522.149769 65.898578 
L 535.129738 61.148696 
L 548.109707 56.554223 
L 561.089676 52.12821 
L 574.069646 47.883998 
L 587.049615 43.835215 
L 600.029584 39.995775 
L 613.009553 36.379883 
L 625.989522 33.002028 
L 638.969492 29.876988 
L 651.949461 27.019831 
L 664.92943 24.445907 
L 677.909399 22.17086 
L 690.889368 20.210616 
L 703.869337 18.581393 
L 716.849307 17.299694 
L 729.829276 16.38231 
L 742.809245 15.84632 
L 755.789214 15.709091 
L 768.769183 15.988276 
L 781.749153 16.701817 
L 794.729122 17.867944 
L 807.709091 19.505173 
" clip-path="url(#pe10133e188)" style="fill: none; stroke: #ff0000; stroke-width: 5; stroke-linecap: square"/>
   </g>
  </g>
 </g>
 <defs>
  <clipPath id="pe10133e188">
   <rect x="3.6" y="3.6" width="842.4" height="266.4"/>
  </clipPath>
 </defs>
</svg>
